<?xml version="1.0" encoding="utf-8"?>
<!-- Generator: Adobe Illustrator 22.1.0, SVG Export Plug-In . SVG Version: 6.00 Build 0)  -->
<svg version="1.1" id="Layer_1" xmlns="http://www.w3.org/2000/svg" xmlns:xlink="http://www.w3.org/1999/xlink" x="0px" y="0px"
	 viewBox="0 0 1210.7 1437.6" enable-background="new 0 0 1210.7 1437.6" xml:space="preserve">
<g>
	<path fill="#273E95" d="M603.8,1379.8c-71.3,0-140.4-16-205.5-47.6c-62.9-30.6-119.5-74.3-168.1-130.1
		c-48.6-55.8-86.8-120.9-113.5-193.3c-27.7-75-41.7-154.8-41.7-237c0-3.6,0-7.4,0.1-11.8l0-0.2l0-0.2V193.8c0-2.7,2.2-4.9,4.9-4.9
		h372.8l1.1-0.4c48.4-16.4,98.8-24.8,149.8-24.8c51,0,101.4,8.3,149.8,24.8l1.1,0.4h372.8c2.7,0,4.9,2.2,4.9,4.9l0,566.1
		c0.1,4.4,0.1,8.3,0.1,11.8c0,82.2-14,161.9-41.7,237c-26.7,72.4-64.9,137.5-113.5,193.3c-48.6,55.8-105.1,99.5-168.1,130.1
		C744.2,1363.8,675,1379.8,603.8,1379.8z"/>
	<path fill="#232323" d="M603.8,170.9c50.2,0,99.8,8.2,147.5,24.4l2.2,0.8h2.3h369.5v563.3l0,0v0.5v0.1l0,0.1
		c0.1,4.4,0.1,8.2,0.1,11.7c0,81.4-13.9,160.3-41.2,234.5c-13.1,35.7-29.4,70-48.3,102.2c-18.7,31.8-40.2,61.7-63.9,88.9
		c-23.6,27.1-49.7,51.8-77.3,73.2c-27.9,21.6-57.7,40.2-88.5,55.2c-64.1,31.1-132.2,46.9-202.4,46.9s-138.3-15.8-202.4-46.9
		c-30.9-15-60.7-33.5-88.5-55.2c-27.6-21.4-53.7-46.1-77.3-73.2c-23.7-27.2-45.2-57.1-63.9-88.9c-18.9-32.2-35.2-66.5-48.3-102.2
		C96,932,82.1,853.1,82.1,771.8c0-3.5,0-7.3,0.1-11.7l0-0.2l0-0.2c0,0,0-0.1,0-0.1V196h369.5h2.3l2.2-0.8
		C504,179.1,553.6,170.9,603.8,170.9 M603.8,156.7c-52.8,0-103.9,8.8-152.1,25.1H80.1c-6.6,0-12,5.4-12,12v565.9c0,0,0,0,0,0.1
		c-0.1,4-0.1,8-0.1,11.9c0,339.7,239.9,615.1,535.8,615.1c295.9,0,535.8-275.4,535.8-615.1c0-4,0-8-0.1-11.9c0,0,0,0,0-0.1V193.8
		c0-6.6-5.4-12-12-12H755.9C707.7,165.5,656.6,156.7,603.8,156.7L603.8,156.7z"/>
</g>
<g>
	<path fill="#293273" d="M380.7,196.3v1135.5c46.3,24.2,96.1,41.1,148.4,49.3V178.9c-23,4.2-45.4,10-67.3,17.5H380.7z"/>
	<path fill="#293273" d="M677.4,175.5v1205.4c52.2-8.4,102.1-25.4,148.4-49.8V196.3h-59.9C737.3,186.7,707.7,179.6,677.4,175.5z"/>
	<path fill="#293273" d="M975.4,196.7v1016.8c71.9-80.1,124.4-183.1,148.4-298.7v-718H975.4z"/>
	<path fill="#293273" d="M141.4,196.3h-18v0H90.1c-2.3,0-4.5,0.7-6.3,1.8v679.1c7.1,55.1,20.6,107.9,39.6,157.2v13
		c12.3,28,26.3,54.8,42,80.2v-4.5c13.1,22.9,27.5,44.8,43.1,65.5c7.6,9.5,15.5,18.7,23.7,27.7V196.3L141.4,196.3L141.4,196.3z"/>
</g>
<g>
	<path fill="#232323" d="M603.8,170.9c50.2,0,99.8,8.2,147.5,24.4l2.2,0.8h2.3h369.5v563.3l0,0v0.5v0.1l0,0.1
		c0.1,4.4,0.1,8.2,0.1,11.7c0,81.4-13.9,160.3-41.2,234.5c-13.1,35.7-29.4,70-48.3,102.2c-18.7,31.8-40.2,61.7-63.9,88.9
		c-23.6,27.1-49.7,51.8-77.3,73.2c-27.9,21.6-57.7,40.2-88.5,55.2c-64.1,31.1-132.2,46.9-202.4,46.9s-138.3-15.8-202.4-46.9
		c-30.9-15-60.7-33.5-88.5-55.2c-27.6-21.4-53.7-46.1-77.3-73.2c-23.7-27.2-45.2-57.1-63.9-88.9c-18.9-32.2-35.2-66.5-48.3-102.2
		C96,932,82.1,853.1,82.1,771.8c0-3.5,0-7.3,0.1-11.7l0-0.2l0-0.2c0,0,0-0.1,0-0.1V196h369.5h2.3l2.2-0.8
		C504,179.1,553.6,170.9,603.8,170.9 M603.8,156.7c-52.8,0-103.9,8.8-152.1,25.1H80.1c-6.6,0-12,5.4-12,12v565.9c0,0,0,0,0,0.1
		c-0.1,4-0.1,8-0.1,11.9c0,339.7,239.9,615.1,535.8,615.1c295.9,0,535.8-275.4,535.8-615.1c0-4,0-8-0.1-11.9c0,0,0,0,0-0.1V193.8
		c0-6.6-5.4-12-12-12H755.9C707.7,165.5,656.6,156.7,603.8,156.7L603.8,156.7z"/>
</g>
<path opacity="0.23" fill="#0E1127" d="M1082.5,990.6c-15.7-19.3-38.2-33.8-65.6-42.2c20.5-11.9,38.9-25.2,54.5-39.7
	c36.7-34.2,56.5-74.8,57.2-117.2c1-64.6-27.4-118-80.9-153.7c4.2-34.4,1.6-78.4-7.9-132.9c-6.5-37-30-61.8-60.1-63.2
	c-19.2-0.9-37.2,8.2-49.3,24.8c-6.5,8.9-11.5,20-15.3,34.1c-0.2,0.8-0.6,1.9-1.3,3.3c-18.2-21.9-39.6-41.1-63.6-56.9
	c-21.2-13.9-44-24.8-67.8-32.5c14.3-24.4,26.6-50.8,36.6-79c15.4-43.3,25.1-91.7,27.1-136.3c0.1-2.8,0.2-5.6,0.3-8.3h-82.7
	c-48.2-16.4-99.3-25.1-152.1-25.1c-52.8,0-103.9,8.8-152.1,25.1H146.4c-1,1.8-1.9,3.7-2.8,5.6c-5.4,12.3-11.4,29-9.9,49
	c1.1,14.6,5.6,26,10.4,38.1c2.2,5.5,4.4,11.2,6.9,18.3c10.7,31.3,41.2,92.4,83.5,155.1c7.5,26,21.8,40.4,34.8,48.2
	c16,20.8,32.7,40.7,49.8,59.5c-4.9,9.5-9.5,18.8-14,27.9c-12.8-0.3-27.5,0-43.2,1.7c-46.4,4.9-85.2,19.7-115.4,44
	c-18.8,15.1-34,33.7-45.1,55.3c-11.8,23-19.1,49.6-21.6,78.9c-3.1,36.7,1.6,70.4,13.8,100.1c11.5,27.9,29.5,51.9,53.4,71.1
	c7.1,5.7,14.7,11,22.7,15.8c-26.6,15.2-41.8,35.9-50.4,53.1c-1.5,3-2.9,6.1-4.2,9.3c32.4,82.4,80.2,155.2,139.2,213.4
	c7-0.7,14.3-1.8,21.9-3.5c24.8-5.5,45.7-15.1,62.4-28.5c13.9,5.3,30.3,8.8,49.5,8.8c4.4,0,9-0.2,13.7-0.6v91.9
	c0,14.1,3.1,27.5,8.6,39.5c55.7,24.7,116,39.1,178.9,41c0.4-0.2,0.7-0.5,1.1-0.7c0.5,0.3,1,0.5,1.5,0.8c3.9,0.1,7.8,0.2,11.7,0.2
	c66.3,0,129.8-13.8,188.4-39.1c16.8-21.3,27.5-47.5,31.2-76.9c1.5-12.2,0.7-24.3-2.3-36c1.7-7.4,2.6-15,2.5-22.7
	c2.5,0.6,5,1,7.6,1.3l56,6.6c2.6,0.3,5.2,0.5,7.8,0.5c0.3,0,0.6,0,0.8,0c11.5,6.3,25.4,11.8,42,15.6c4.9,1.1,9.8,2.1,14.6,2.8
	c61.6-60.7,111.1-137.2,143.7-224C1092.4,1004.4,1087.9,997.3,1082.5,990.6z"/>
<g>
	<path fill="#232323" d="M309.2,420.1c-10.3,7.3-5,33.3-5,33.3c-26.3-2-26.3-43.3-26.3-43.3"/>
	<path fill="#EDDC13" d="M290.3,158.3c0,0-95.9,20.8-89.8,79.1c6.1,58.4,69.7,118.6,69.7,118.6l18.2-68.1l-2.5-37.8
		C285.9,250.2,276.2,195.2,290.3,158.3z"/>
	<path fill="#D5C328" d="M287.5,196.8c0,0-59.8-8.6-65,36.3c-5.2,44.9,1.5,64.9,3.7,69.2c73.5,146,170.5,214.7,170.5,214.7
		l12.3-24.8L287.5,196.8z"/>
	<path fill="#232323" d="M288.1,173.2c0,0-38.2,10.3-54.6,18.4c-16.4,8.1-32.1,30.9-18.7,70.1c48.2,141,179.7,252.5,179.7,252.5
		L378,542.9C270.6,435,209.1,309.2,196.6,272.6c-12.5-36.6-21.4-41.6-8.9-70.4c12.6-28.8,104.7-58.7,104.7-58.7"/>
	
		<ellipse transform="matrix(0.7071 -0.7071 0.7071 0.7071 -278.6663 688.8648)" fill="#FFFFFF" cx="692.2" cy="680.8" rx="227.4" ry="227.4"/>
	<path fill="#CFCECE" d="M902.9,652.1c0,0-72.4,96.3-188.6,100.8c-173.6,6.7-199.9-84.4-170.5-158.1c29.4-73.7-24.3,32.2-24.3,32.2
		s-60.4,85.1-13.3,125.5c47.1,40.4,170.8,57.2,217.5,48.8c46.7-8.4,190.4-24.9,195.8-55.5C924.9,715.2,902.9,652.1,902.9,652.1z"/>
	<path fill="#232323" d="M638.5,486.4c0,0,46.8,1.8,70.7,20c0,0,26.8-17.9,67.9-22.2c0,0-6.8-13.6-28.9-22.1c0,0-48.2-11.4-90.7,0.4
		C657.5,462.5,638.5,475.7,638.5,486.4z"/>
	<path fill="#232323" d="M520.6,568.6c0,0,13.6-24.3,38.1-27.9c0,0-9.2,49.3,3.4,67.5c0,0-36.7,40-40.5,65.7
		c0,0-20.7-11.4-22.8-25.7C498.9,648.2,500.9,601.8,520.6,568.6z"/>
	<path fill="#232323" d="M546.6,763.2c0,0,25.1,23.3,69.2,20.9c0,0,6.2,30.1,42,63.7c0,0-16.2,19.4-37.5,20.5
		c0,0-42.7-15.2-70.9-54.1C549.4,814.2,539.1,793.3,546.6,763.2z"/>
	<path fill="#232323" d="M798.2,782.9c0,0-16.4,40.7-41.4,61.5c0,0-2.9,3.2-2.1,4.6c0.7,1.4,22.1,19.6,43.9,20.7
		c0,0,44.7-18.9,66.8-56.4c0,0,8.2-21.8,2.9-47.9c0,0-1.8-2.9-3.9-1.4C862.2,765.4,822.5,783.3,798.2,782.9z"/>
	<path fill="#232323" d="M921,643.5c-4.3-31.9-15.3-61.5-31.3-87.4c-4.9-4-15.4-10.8-35.8-17.5c0,0,15.2,43.6,2.1,71.5
		c0,0,30.1,27.2,41.9,66.1C897.9,676.1,916.9,663.8,921,643.5z"/>
	<path fill="#232323" d="M708.9,576.8c0,0-57.9,32.1-71.8,51.4c0,0,12.8,60.7,21.4,76.8c0,0,3.9,7.2,11.4,9.3
		c7.5,2.1,50.7,2.1,79,1.1c0,0,6.4-1.8,8.9-7.2c2.5-5.4,20.4-52.1,23.9-78.2c0,0-0.8-4.5-4-6.6c-3.2-2.1-62.4-45.3-63.8-45.5
		C712.7,577.6,711.9,577,708.9,576.8z"/>
	<path fill="#EDDC13" d="M328.8,896.9c0,0-217.8-33.8-182.4-136.2c35.4-102.4,117.5-137.5,147.8-130.2c30.4,7.3,44.2,9.3,44.2,9.3
		s-72.2,187.9,20.3,252.8L328.8,896.9z"/>
	<path fill="#283A97" d="M429.2,365.3c0,0,44.5,41.3-45.4,181.4C293.8,687,282.4,885.3,412,924.4c0,0-28.3-161.6,17.9-260.9
		c46.2-99.4,128.1-218.9,136.3-271.8c8.2-52.9-27.1-148.3-27.1-148.3S490.9,328.4,429.2,365.3z"/>
	<path fill="#D5C328" d="M325.7,680.8c0,0-55.9-19.6-72.5,35.3c-16.7,54.9,60.8,22.8,60.8,22.8L325.7,680.8z"/>
	<path fill="#D5C328" d="M315.4,824.2c0,0-162.1,14.6-163.5-78.1c0,0-27.4,120.4,35.5,139.5s126.6,22.5,126.6,22.5l38.4-14.6
		L315.4,824.2z"/>
	<path fill="#293273" d="M324.4,686c0,0,53.3,54.3,152.1-126.4c0,0-110.2,184-67.9,300.1s-23.6,50.5-24.8,48.5
		c-1.2-2-55-49.4-55-49.4s-17.7-53.1-17.4-55.4C311.6,801,324.4,686,324.4,686z"/>
	<path fill="#EDDC13" d="M910.4,652.1c0,0,67.6-0.2,104.5,32.7c36.9,32.9,79.9,97.3,34.8,131.6c-45.1,34.4-397.2,165.3-480,151.9
		s-159.1-21.8-175.5-62.2c-16.4-40.4-22.5-88,0-157.7c22.5-69.7,96.6-203.1,96.6-203.1s64.6-27.8,79.3-35.7
		c14.7-7.9-3.8,26.8-3.8,26.8s-135.4,220.3-39,240.7s196.5,47.1,295.1,12.2C921.4,754.3,920.9,721,910.4,652.1z"/>
	<path fill="#EDDC13" d="M896,596.8c0,0,67.6-58.4,81.9-77.8c14.3-19.4,12.3-7.9,12.3,27.8c0,35.7-20.2,116.6-20.2,116.6L923.1,653
		L896,596.8z"/>
	<path fill="#D5C328" d="M1039.5,721.7c0,0-12.9,179.3-371.4,162.6s-211.4-203-140.8-354.6l-44.6,16.7c0,0-147.5,305.2-45.9,373.5
		s361,47.8,459.4-11.6s143.4-104.8,143.4-104.8V721.7z"/>
	<path fill="#D5C328" d="M921,586.5c0,0,63.8,14.1,63.8-45.8L978,657.6l-53.7-11.2l-7.8-29.8L921,586.5z"/>
	<g>
		<path fill="#232323" d="M603.9,462l-19.1,39.8c31.5-20.2,69-31.9,109.1-31.9c111.8,0,202.5,90.7,202.5,202.5
			c0,38.4-10.7,74.3-29.2,104.8c17.8-5.5,33.6-10.8,46.6-15.4c11.2-27.6,17.4-57.8,17.4-89.4c0-131-106.2-237.3-237.3-237.3
			c-38.4,0-74.6,9.1-106.7,25.3C597.5,461.3,603.9,462,603.9,462z"/>
		<path fill="#232323" d="M506.3,748.4c-7-17.2-11.7-35.6-13.7-54.9l-9.9,20.7L506.3,748.4z"/>
	</g>
	<path fill="#283A97" d="M276.2,201.9c0,0-60.5,12.6-50.5,47.2c10,34.6,48.6,78.9,48.6,78.9L276.2,201.9z"/>
	<path fill="#293273" d="M224.6,243.4c0,0,30.5,34.8,49,0c18.5-34.8,158.7,138.4,158.7,138.4l18.7,40.7l-37.4,60.2
		C413.6,482.7,298,418.2,224.6,243.4z"/>
	<path fill="#FFFFFF" d="M284,411.3c0,0,2.6,23.7,15.7,34.9c0,0-5.7-23.8,4.5-30.6L284,411.3z"/>
	<path fill="#232323" d="M330,420.7c0,0,9.9,35.8,30.7,44.7c20.7,8.9-4.2-3.5,0.6-27.8c4.8-24.3,7.8-26.5,7.8-26.5L330,420.7z"/>
	<path fill="#232323" d="M273.8,210.2c0,0-52.4,14.4-43.1,34.6c90.2,194.1,184.1,235.3,184.1,235.3l-7.8,16.4
		c0,0-118-80.9-183.8-247.7c-10.8-27.3,13.1-42.1,51.1-46.8L273.8,210.2z"/>
	<path fill="#FFFFFF" d="M338.4,420.1c0,0,4.3,23.5,18.2,33.6c0,0-7.4-23.3,2.3-30.8L338.4,420.1z"/>
	<path fill="#EDDC13" d="M306.9,411.7c-32.8-12.4-37.5-37.6-30.7-72.3c6.8-34.7,8.8-62,10.5-105.7c1.7-43.7-1.4-65.5,10.1-90.2
		c11.5-24.7,54.4-44.5,79-54.5c24.6-10,96.5-24.1,176.6,23.5c0,0,148.3-47.6,183.8-32.1c35.6,15.5,43.8,14.9,44.7,79.4
		c0.9,64.5-37.3,232.4-108.3,287c-71,54.6-161.5,89.7-161.5,89.7l-33.2-10.2l33.2-46.9c0,0,128.5-88.1,74.5-216.9
		c-54.1-128.8-38.7,0-38.7,0L461.6,328C461.6,328,403.6,413.7,306.9,411.7z"/>
	<path fill="#D5C328" d="M517.4,174.2c0,0,47.6-64.3,140.4-69.6c92.9-5.3,90.8,35.1,85.3,97.4c-5.5,62.3-31.2,148.7-50.9,171.8
		c-19.7,23.1-47.4,82.3-26.9,73.8c0,0-72.4,60.3-112,70.3c-39.6,9.9-47,3.2-47,3.2l28.6-36.3c0,0,91.6-221.1,45.6-288
		C534.5,129.9,517.4,174.2,517.4,174.2z"/>
	<path fill="#283A97" d="M517.4,492.2c0,0,97-86.4,69.7-178.4c-27.2-91.9-51.9-88.7-48.3-112.2c3.6-23.5,64.6-81.5,125-73.9
		c60.4,7.6,63.5,47,58.8,95.8C717.9,272.4,682.1,462.3,517.4,492.2z"/>
	<path fill="#D5C328" d="M284.8,365.7c0,0-2.4,29,30.7,25.9c33-3.1,86.4-32.7,122.6-71.8c36.1-39.1,80.2-102.2,60.9-135
		c0,0,30.6-2.7,31.6,39.7c1,42.5-46.2,92.1-65.6,113c-19.4,20.9-92.2,82.6-126.4,81c-34.2-1.6-63.1,4.6-64.1-13.3
		C273.1,383.1,284.8,365.7,284.8,365.7z"/>
	<path fill="#293273" d="M580.5,143.6c0,0,9.5,155.8,77.3,135.8c67.8-20,66.4-46.3,66.4-46.3s-40.4,205.1-155.5,243.1l-62.5,30.2
		c0,0,91.9-110.3,55.8-219.9c-36.1-109.6-18.2-84.6-18.2-84.6l3-39.4L580.5,143.6z"/>
	<path fill="#D5C328" d="M317.5,152.8c0,0-10.7,73.8,20.9,80.3c31.6,6.5,44.5-45.5,45.4-63.8c0.9-18.3-4.6-68.3,60.8-42.2
		c65.4,26.2,37.6,28.1,18.1,22.4c-19.5-5.7-32.5,6.5-40.2,16.5c-7.6,10-27.1,74.7-34.4,81.7c-7.4,7-43.3,0.7-52.9,33.4
		c-9.6,32.8-18.2,34.6-17.8,20.5c0.5-14.1-2.5-27.3-15.6-24.8c-13.1,2.5-22.2-11.2-21.3-43.7c0.9-32.5,5-83.5,16.4-94.4
		c11.4-10.9,28.7-15.9,28.7-15.9L317.5,152.8z"/>
	<path fill="#232323" d="M382.4,249.9c0,0,15.1-15.2,18.6-38.8c5.3-35.6,13.1-84.5,61.7-61.7c0,0-20.1-0.8-30.7,11.3
		c-10.6,12.1-14.7,14.4-19,37.4C407.7,227.4,398.6,245.8,382.4,249.9z"/>
	<path fill="#232323" d="M271.7,285.3c0,0-10.9-17.5-6.7-51.7c4.2-34.3,8.6-56.3,18-87c5.4-17.6,30.9-31.3,30.9-31.3l-3.1,23.9
		c0,0-8,7.1-10.5,17.8c-2.5,10.7-24.2,116.5,5,120.9C305.4,277.9,292.7,290.3,271.7,285.3z"/>
	<path fill="#232323" d="M351,365.3c0,0-11.2,11.2-10.7,16.5c0.6,5.3-0.4,10.1-5.6,9.8C329.6,391.4,318.7,376.4,351,365.3z"/>
	<path fill="#232323" d="M320.5,169.2c0,0-11.8-11.6-8.6-38.6c3.3-27.1,4.3-27.8,20.9-37.3c16.6-9.5,122.3-70.2,245.1,19.9l-26.2,9
		c0,0-61.3-34.9-110.9-34.9c-49.6,0-94.6,19.2-102.5,31.7C328.6,134.5,317.1,144.8,320.5,169.2z"/>
	<path fill="#232323" d="M543.4,101.5c0,0-28,27.6-31.5,37.8c0,0,29.6-15.1,98.3-32.9c46.6-12.1,153.4-47.8,158.1,30.2
		C781.9,365.6,614.1,516.9,490.9,518l-14,28.8c0,0,213.9-9,296.7-241.1c35.3-99,39.6-240.4-32.9-241.7
		C668.2,62.8,659.6,67.6,543.4,101.5z"/>
	<path fill="#232323" d="M490.8,183.9c0,0,31.2-4.6,23.4,49.7c-12.5,86.9,38.3,5,38.3,5l7.4-16.8c0,0-22.1-28.1,7.1-56.5
		c21.5-20.9,136.7-56.9,147,0.4c10.4,57.3-35.3,261.1-179.2,319l-14.2,14.8c0,0,147.3-31.1,190.5-183.9
		c47-166.3,31.9-224-80.5-196.8c-78.1,18.9-84.5,31.4-139.7,61.8"/>
	<path fill="#232323" d="M277.5,244.3c0,0-27.2-6.3-48.7,13.7l10.4,20.9c0,0,23.4-16.9,38.2-7.4L277.5,244.3z"/>
	<path fill="#232323" d="M294.4,284.3c0,0-8.2,56.8-9.6,81.4c-1.4,24.6-2.3,35.6,24.1,39.4c26.4,3.8,60.5-1.6,79.7-17.8
		c19.1-16.2,113.9-89.5,124.1-140.9c10.2-51.4,15-12.7,15-12.7l34.8-4.9c0,0,48.6,78.8,27.8,158.5c-20.9,79.7-34.1,63.5-76.5,140.4
		l-21-3.7l15.3-44.8c0,0,84.8-133.6,28.4-204.6c0,0-66.9,85.1-107,112.7c-40.1,27.5-73.7,43.9-112,38.5s-59.6-12.7-53.5-65.6
		s9.8-45.8,7.5-81.3L294.4,284.3z"/>
	<path fill="#232323" d="M424,378.5c0,0,28.8,34.2-10.4,104.2c-22.1,39.5-251.4,380.7-9.1,461.8c197.4,66.1,408-13.3,408-13.3
		s-288,24.7-366.5-12.7c-107.5-51.2-148.4-97.7-87.2-267.4c61.2-169.7,119.9-166.9,97.9-294.9L424,378.5z"/>
	<path fill="#232323" d="M510,476.2c-152.3,207.1-185.3,478.4-51.5,454.5c0,0-129.7-71.4,68.7-426.1L510,476.2z"/>
	<path fill="#232323" d="M546.9,225.4c0,0,60.7-60.3,176.9-38l-0.3,25.3c0,0-73.6-21.7-162.6,35.1L546.9,225.4z"/>
	<path fill="#232323" d="M579.4,290c0,0,74.6-27.4,124.3,3.6l-10.1,25.2c0,0-45.4-29.2-111.5,1L579.4,290z"/>
	<path fill="#232323" d="M582.6,375.6c0,0,53.7,3.9,63.9,36.6c6.5,20.7-18.1,22.8-18.1,22.8s-2.9-34.9-47.9-31.6L582.6,375.6z"/>
	<path fill="#232323" d="M438,399.1c0,0-67.7,3.9-78,36.6c-6.5,20.7,18.1,22.8,18.1,22.8s12.3-36.4,57.3-33L438,399.1z"/>
	<path fill="#232323" d="M560.3,527.8c0,0-91.2,130.6-83.3,247.3c3.3,43,13.9,49.2,13.9,49.2s-10.6,2.6,0-66.6
		c14.7-95.7,62.5-173.8,111.1-251.2L560.3,527.8z"/>
	<path fill="#232323" d="M498.4,720c0,0,56.5,92.1,268.4,56.6c211.8-35.5,154.8-91.8,154.8-91.8s58.3,62.5-49.5,100
		c-107.8,37.5-325.2,55.3-389.5-25.4L498.4,720z"/>
	<path fill="#232323" d="M328.8,801.2c45.9,221.7,677.9,111.1,704.5-24.1c22.1-112-112.7-111.8-112.7-111.8l6.9-34.8
		c0,0,155,15.6,152.9,146.6s-272.9,205-478.5,193.6c-205.6-11.4-263.5-91.3-263.5-91.3L328.8,801.2z"/>
	<path fill="#232323" d="M896,580.4c0,0,55.3-42.9,65.5-80.9c10.2-37.9,26.6-23.5,30.7,0c4.1,23.5,18.4,106.8,0,149.1
		c-18.4,42.4-28.7,0-28.7,0s10.2-76.2,10.2-101.9c0-25.7-14.2,11.8-25.1,25.1c-11.5,14-36.3,34.2-36.3,34.2L896,580.4z"/>
	<path fill="#232323" d="M341.8,630.5c0,0-199.6-37.8-213.9,132.2c-14.3,170,177.9,192.3,255.9,149.4c0,0-53.9,1-55-37.9
		c0,0-164.3,21.8-168.1-97.2C156.6,648,277.4,648.9,339.9,665.3L341.8,630.5z"/>
	<path fill="#232323" d="M311.4,750.6c0,0-96.2,12.6-74.2-29.6c21.9-42.3,27-27.4,27-27.4s-29.4,42.9,40.1,25.3L311.4,750.6z"/>
	<path fill="#232323" d="M393.7,268.1c0,0,26.9-20.2,28.9-44.1c2-23.9,20.6-37.5,31.5-43.3c0,0-11,17.7-4.3,32.6
		C455.3,225.4,449.7,273.5,393.7,268.1z"/>
	<path fill="#FFFFFF" d="M446.5,228.8c0,2.3-1.9,4.3-4.2,4.3c-2.3,0-4.2-1.9-4.2-4.3c0-2.3,1.9-4.2,4.2-4.2
		C444.6,224.6,446.5,226.5,446.5,228.8z"/>
	<path fill="#FFFFFF" d="M446,218.1c0,1.7-1.4,3.1-3.1,3.1s-3.1-1.4-3.1-3.1c0-1.7,1.4-3.1,3.1-3.1S446,216.5,446,218.1z"/>
	<path fill="#232323" d="M311.4,784.6c0,0,62.8-18.7,87.5,16.6l3.5,36.2c0,0-55.6-39.1-76.7-10.2L311.4,784.6z"/>
	<path fill="#232323" d="M328.8,693.6c0,0,64.5-25.2,86.9,10.6l16.2-30.2c0,0-13.4-48.2-83.2-27.5L328.8,693.6z"/>
	<path fill="#232323" d="M383.8,559.6c0,0,66.5-21.9,87.5,9l23.2-23.8c0,0-5.5-49.4-96.2-21.6L383.8,559.6z"/>
	<path fill="#232323" d="M446,453.5c0,0,73-38,97.9-7.6l16.1-40.6c0,0-57.4-39.1-115.3,14.4L446,453.5z"/>
</g>
<g>
	<path fill="#232323" d="M1048.9,1047.8c-12.7-15.5-31.8-26.3-56.6-31.9c-23.8-5.4-45.8-4-63.6,4.2c-10.1,4.6-18.7,11.4-25.5,19.8
		l-2-17.4c-1.4-12.4-11.2-22.3-23.7-23.7l-3.9-0.4c8.2-11.4,12.9-26.2,12.9-43.4c0-18.7-5.8-34.8-16.7-46.4
		c-8.1-8.6-23.1-18.9-48-18.9h-29c-5.2,0-10.1,1.5-14.2,4c-6.8-2.7-14.5-4-22.8-4h-34.4c-6.4,0-12.2,2.2-16.8,5.9
		c-8.7-4.6-18.8-7.1-29.9-7.1c-10,0-19.4,2-27.7,5.8c-4.3-2.9-9.5-4.6-15.1-4.6h-53c-1.3,0-2.5,0.1-3.7,0.3
		c-1.2-0.2-2.5-0.3-3.7-0.3h-61.1c-1,0-2,0.1-3,0.2c-1-0.1-2-0.2-3-0.2h-53.9c-2.5,0-4.9,0.3-7.1,1c-2.3-0.6-4.7-1-7.1-1h-27.5
		c-4.6,0-9,1.2-12.8,3.3c-3.8-2.1-8.2-3.3-12.8-3.3h-28.5c-14.9,0-26.9,12.1-26.9,26.9v79.9c0,3.4,0.7,6.7,1.8,9.8
		c-11.2,7.4-19,16.1-24.1,23.9c-0.6,0.8-1.1,1.7-1.6,2.5c-2.6-2.4-5.3-4.5-8.2-6.5c-14.1-9.7-38.8-19.4-76.3-10.9
		c-40,9.1-58.5,31.6-67.1,48.8c-10.7,21.7-12.7,48.2-5.7,78.8c7,30.7,18.9,52.9,36.4,67.7c15.2,12.8,33.6,19.3,54.8,19.3
		c8.8,0,18-1.1,27.8-3.3c27.7-6.3,48.3-18.7,61.2-36.9c0.6-0.9,1.2-1.8,1.8-2.7c15.4,12.1,34.8,18.6,57.5,18.6
		c4.6,0,9.3-0.3,14.2-0.8c23.4-2.6,42.5-9.7,57.2-21.4c5,5.9,12.4,9.7,20.7,9.7c0.3,0,0.6,0,0.9,0l74.9-2.3
		c16.7-0.5,31.2-3.8,43.3-9.9c4.7,4.9,11.2,8.1,18.5,8.4l52.8,1.9c4.1,0.2,8.2-0.7,12-2.3c3.5,1.9,7.6,3,11.8,3.2l52.4,1.9
		c1,0,2,0,3-0.1l47.9,5.5c7.4,0.8,14.4-1.4,19.9-5.7c4.3,5.5,10.7,9.2,18.1,10.1l56,6.5c1,0.1,2.1,0.2,3.1,0.2
		c3.2,0,6.4-0.6,9.4-1.7c10.9,7.8,24.9,14.1,42.6,18.1c10.9,2.5,21.2,3.7,30.8,3.7c12.7,0,24.4-2.1,34.8-6.4
		c22.1-9.1,37.4-27.7,43-52.5c3.8-16.8,2.4-30.8-2.5-42.7c0.5-0.3,0.9-0.5,1.4-0.8c6.1-4,10.3-10.4,11.7-17.6
		C1068.1,1086.6,1063,1065,1048.9,1047.8z M528.8,1110.1C528.8,1110.1,528.8,1110.1,528.8,1110.1l0.4,11.5c0,0,0,0,0,0L528.8,1110.1
		z M671,956.6c2.3-0.8,4.7-0.7,6.8-0.1C675.6,957.2,673.2,957.4,671,956.6z"/>
	<g>
		<g>
			<path fill="#EDDC13" d="M316.4,1127.8c4.3,36-10.9,62.1-54.6,71.8c-52.6,11.7-76.5-18.5-86.6-63.6c-10.4-46.5,3-84.1,52.8-95.2
				c50-11.2,71.1,16.5,77.6,40.5l-52.8,11.8c-3.6-12.1-7.8-18.2-16.7-16.2c-10.7,2.4-12.1,14.4-5,46.5c6.8,30.3,13.2,41.9,23.7,39.5
				c10-2.2,10.5-11.4,8.8-23.3L316.4,1127.8z"/>
			<path fill="#EDDC13" d="M465.9,1087.7c5.1,47.7-10.6,83.9-66.2,89.9c-50.2,5.4-75.1-24.9-80.4-73.9c-5-45.9,12.8-82.1,65.4-87.8
				C435.9,1010.3,461,1042.8,465.9,1087.7z M376.2,1096.9c3.5,32,8.1,45.1,21.4,43.7c13.3-1.4,14.8-14.4,11.2-47.7
				c-3.3-30.1-7.1-41.4-20.8-39.9C375.2,1054.3,372.9,1065.9,376.2,1096.9z"/>
			<path fill="#EDDC13" d="M476,1011.2l76.5-2.3c38.1-1.1,52,17.3,52.7,38.2c0.5,16.9-8.3,27.6-22.2,32.8
				c12.5,3.7,27.8,13.2,28.5,35.4c0.8,26.8-16.3,47.2-55.9,48.4l-74.9,2.2L476,1011.2z M539.1,1068.7c10.3-0.3,13.3-4.9,13-13.9
				c-0.3-8.8-4.6-13.4-13.9-13.1l-8.8,0.3l0.8,27.1L539.1,1068.7z M532,1132.1l8.8-0.3c8.3-0.2,14.5-3.6,14.2-16.8
				c-0.3-11.7-5.4-16.2-15.7-15.9l-8.2,0.2L532,1132.1z"/>
			<path fill="#EDDC13" d="M674.1,1108.8l-2.1,55.4l-52.8-2l5.9-154.6l76.2,2.9c39.6,1.5,52.6,23.8,51.8,44.7
				c-0.8,20.6-11.1,31-24.6,35.8c16.7,6.7,20.4,21,19.8,38l-0.2,5.3c-0.5,12.4-1.1,27.3,0.1,32.9l-52.4-2
				c-1.8-5.8-2.3-17.5-1.7-32.6l0.2-4.5c0.6-15.1-2.9-18.6-14.3-19L674.1,1108.8z M675.5,1073.9l9,0.3c10.3,0.4,14.2-5.4,14.6-14.8
				c0.4-9.9-3.5-14.6-13.3-15l-9.2-0.4L675.5,1073.9z"/>
			<path fill="#EDDC13" d="M808,1147.2l-6.9,25.7l-53.4-6.3l52.8-149.6l76.7,9l17.8,157.9l-56-6.6l-1.4-26.7L808,1147.2z
				 M835.3,1109.3c-0.2-13.2-0.8-38-1.1-54.8l-1.4-0.2c-4,16.5-9.1,37.1-13.6,53.1L835.3,1109.3z"/>
			<path fill="#EDDC13" d="M949.6,1146.5c-2,12.5,1.9,18.9,11.5,21.1c8.1,1.9,12.5-1.1,14-7.6c1.7-7.5-2.3-13-20.4-23.7
				c-35.4-20.4-41.8-38.5-37.2-58.7c7.4-32,36.2-42.8,71.8-34.6c37.3,8.6,56.8,31.1,50.6,63.5l-48.7-11.2c1.8-9.2,0-16.6-9-18.7
				c-5.9-1.4-10.6,0.7-11.8,6.1c-1.6,7,2.4,11.2,19.5,21.3c36.4,21.4,45.2,37.8,39.5,62.5c-7.9,34.3-38.8,43.4-76.5,34.7
				c-43-9.9-58.2-36-52.7-66L949.6,1146.5z"/>
		</g>
	</g>
	<g>
		<path fill="#D5C328" d="M417.2,958.9c0-12.9,0.2-29.6,0.6-38.8h-0.7c-3.3,17.1-9.7,44.6-15.7,66.4h-16.2
			c-4.5-19.5-10.9-49.7-13.9-66.6h-0.7c0.7,9.3,1,26.1,1,39.9v26.6h-17.6v-79.9h28.5c4.4,16.4,10,42,11.8,54.1h0.2
			c1.8-11.6,8.8-36.8,13.6-54.1h27.5v79.9h-18.6V958.9z"/>
		<path fill="#D5C328" d="M502.6,952.8h-33.6v18.4h37.3l-2.2,15.3h-53.9v-79.9h53.9V922h-35v15.4h33.6V952.8z"/>
		<path fill="#D5C328" d="M530.8,922H510v-15.4h61.1V922h-20.7v64.5h-19.5V922z"/>
		<path fill="#D5C328" d="M578.6,906.6h53V922h-33.9v17.6h31.9v15.2h-31.9v31.7h-19.1V906.6z"/>
		<path fill="#D5C328" d="M710.1,946.1c0,23.4-11,41.7-37,41.7c-25.2,0-35.8-18.7-35.8-41.8c0-20.4,10.9-40.6,36.9-40.6
			C699.1,905.4,710.1,924.5,710.1,946.1z M657.5,946c0,15.5,5.3,27,16.4,27c12.2,0,16.2-10.5,16.2-26.9c0-14.2-3.9-25.8-16.5-25.8
			C662.1,920.2,657.5,931,657.5,946z"/>
		<path fill="#D5C328" d="M740,954.8v31.7h-19v-79.9h34.4c16.2,0,26.5,8.2,26.5,21.9c0,10.8-5.5,16.1-12.2,18.7
			c7.9,3.2,10.6,9.5,10.6,19.1v2.4c0,7,0.4,13.6,1,17.8h-18.7c-1.2-3.4-1.5-8.4-1.5-18.1v-2.3c0-8.6-2.9-11.3-12.1-11.3H740z
			 M740,940.2h10.4c6.9,0,12.3-2.2,12.3-9.8c0-6.8-4.7-9.2-10.5-9.2H740V940.2z"/>
		<path fill="#D5C328" d="M792.3,906.6h29c25.3,0,37.9,15.1,37.9,38.4c0,25.9-13.8,41.5-38.3,41.5h-28.5V906.6z M811.8,971.8h8.5
			c12.4,0,18.7-9.1,18.7-26.6c0-14.5-5.1-23.8-18.5-23.8h-8.7V971.8z"/>
	</g>
	<g>
		<g>
			<path fill="#232323" stroke="#232323" stroke-width="56.6929" stroke-linejoin="round" stroke-miterlimit="10" d="M496.9,1201.7
				h98.9v31.1h-56.6v24.1h53v31.2h-53v53h-42.2V1201.7z"/>
			<path fill="#232323" stroke="#232323" stroke-width="56.6929" stroke-linejoin="round" stroke-miterlimit="10" d="M729.2,1293.8
				c-3.7,29.4-21.9,50.3-61.2,50.3c-48.2,0-63.6-32.9-63.6-72.4c0-40.5,19.6-72.9,65.1-72.9c44.4,0,58.1,27.8,59.2,49.4h-42.4
				c-1.5-10.7-4.7-19-17.1-19c-14.9,0-19.9,15.4-19.9,42.4c0,26.3,5,41.9,19.7,41.9c12.9,0,16.3-10,17.7-19.8H729.2z"/>
		</g>
	</g>
	<g>
		<path fill="#D5C328" d="M496.9,1196.7h98.9v31.1h-56.6v24.1h53v31.2h-53v53h-42.2V1196.7z"/>
		<path fill="#D5C328" d="M729.2,1288.8c-3.7,29.4-21.9,50.3-61.2,50.3c-48.2,0-63.6-32.9-63.6-72.4c0-40.5,19.6-72.9,65.1-72.9
			c44.4,0,58.1,27.8,59.2,49.4h-42.4c-1.5-10.7-4.7-19-17.1-19c-14.9,0-19.9,15.4-19.9,42.4c0,26.3,5,41.9,19.7,41.9
			c12.9,0,16.3-10,17.7-19.8H729.2z"/>
	</g>
</g>
<g>
	<path fill="#FFFFFF" d="M368.5,1264.8h-10.6v6.5h11.7l-0.6,4.2h-16.1v-24.6h16v4.3h-11v5.4h10.6V1264.8z"/>
	<path fill="#FFFFFF" d="M376.3,1268.2c0.3,2.2,1.7,3.6,4.3,3.6c2.8,0,3.7-1.2,3.7-2.9c0-2.2-1.3-3.1-4.8-4.1
		c-5.7-1.6-7.6-3.7-7.6-7.2c0-4.6,3.7-7.1,8.4-7.1c5.9,0,8.4,3.1,8.7,7.1h-5c-0.3-1.8-1.1-3.1-3.7-3.1c-2.1,0-3.2,1-3.2,2.7
		c0,1.8,1.2,2.3,4.6,3.3c6.2,1.8,7.9,4.4,7.9,7.9c0,4-2.6,7.5-9.1,7.5c-5.4,0-8.9-2.7-9.2-7.6H376.3z"/>
	<path fill="#FFFFFF" d="M396.8,1255.1h-6.6v-4.3h18.3v4.3H402v20.4h-5.2V1255.1z"/>
	<path fill="#FFFFFF" d="M407,1275.5v-5.7h4.9v5.7H407z"/>
</g>
<g>
	<path fill="#FFFFFF" d="M795.3,1275.5v-18.2c-0.7,0.1-2.4,0.1-3,0v-3.6c1.8-0.1,3.6-1,4.7-2.1h3.4v23.9H795.3z"/>
	<path fill="#FFFFFF" d="M809.2,1269.9c0.3,1.3,1.1,2.2,2.9,2.2c3,0,3.4-4.3,3.5-6.8c-0.9,1.3-2.9,1.7-4.4,1.7
		c-4.1,0-7.4-2.8-7.4-7.5c0-4.6,3.1-8.2,8.2-8.2c6.7,0,8.5,5.2,8.5,11.1c0,7.8-2,13.4-8.8,13.4c-5.2,0-7.1-3.1-7.5-6H809.2z
		 M808.9,1259.1c0,2.8,1.4,4.1,3.4,4.1c1.8,0,3.3-0.8,3.3-3.4c0-2.6-0.8-4.7-3.3-4.7C810.1,1255.1,808.9,1256.6,808.9,1259.1z"/>
	<path fill="#FFFFFF" d="M828.1,1269.9c0.3,1.3,1.1,2.2,2.9,2.2c3,0,3.4-4.3,3.5-6.8c-0.9,1.3-2.9,1.7-4.4,1.7
		c-4.1,0-7.4-2.8-7.4-7.5c0-4.6,3.1-8.2,8.2-8.2c6.7,0,8.5,5.2,8.5,11.1c0,7.8-2,13.4-8.8,13.4c-5.2,0-7.1-3.1-7.5-6H828.1z
		 M827.7,1259.1c0,2.8,1.4,4.1,3.4,4.1c1.8,0,3.3-0.8,3.3-3.4c0-2.6-0.8-4.7-3.3-4.7C828.9,1255.1,827.7,1256.6,827.7,1259.1z"/>
	<path fill="#FFFFFF" d="M841.4,1258.2c0.3-3.4,2.3-6.9,8-6.9c5.6,0,7.8,3.1,7.8,6.4c0,2.7-1.7,4.2-3.1,4.8v0.1
		c1.9,0.7,4.1,2.2,4.1,5.9c0,3.5-2.3,7.5-8.7,7.5c-5.7,0-8.1-3.2-8.4-6.9h4.9c0.3,1.7,1.2,3.1,3.7,3.1c2.4,0,3.5-1.3,3.5-3.6
		c0-2.5-1.4-3.6-4.1-3.6h-1.8v-3.9h1.5c2.4,0,3.6-0.7,3.6-2.9c0-1.9-1-2.9-2.9-2.9c-2,0-3,1.1-3.2,3.1H841.4z"/>
</g>
</svg>
